<svg width="21" height="21" viewBox="0 0 21 21" fill="none" xmlns="http://www.w3.org/2000/svg">
<g clip-path="url(#clip0_2806_22305)">
<path d="M9.21758 6.56139C9.46114 6.19534 9.56509 5.75397 9.5105 5.3177C9.45591 4.88143 9.2464 4.47929 8.92015 4.18455C8.5939 3.8898 8.17262 3.72207 7.73306 3.71192C7.2935 3.70176 6.86493 3.84985 6.52541 4.12921C6.18589 4.40857 5.95803 4.8006 5.88335 5.23389C5.80866 5.66717 5.89212 6.11287 6.11851 6.48978C6.34491 6.86668 6.69917 7.14972 7.11676 7.28731C7.53435 7.4249 7.98748 7.40789 8.39358 7.23939C8.729 7.09943 9.01564 6.86358 9.21758 6.56139Z" stroke="#182224" stroke-width="1.5" stroke-linecap="round" stroke-linejoin="round"/>
<path d="M9.21758 16.8763C9.46114 16.5103 9.56509 16.0689 9.5105 15.6326C9.45591 15.1964 9.2464 14.7942 8.92015 14.4995C8.5939 14.2047 8.17262 14.037 7.73306 14.0269C7.2935 14.0167 6.86493 14.1648 6.52541 14.4442C6.18589 14.7235 5.95803 15.1155 5.88335 15.5488C5.80866 15.9821 5.89212 16.4278 6.11851 16.8047C6.34491 17.1816 6.69917 17.4647 7.11676 17.6023C7.53435 17.7398 7.98748 17.7228 8.39358 17.5543C8.729 17.4144 9.01564 17.1785 9.21758 16.8763Z" stroke="#182224" stroke-width="1.5" stroke-linecap="round" stroke-linejoin="round"/>
<path d="M11.8376 11.7186C11.5941 11.3526 11.4901 10.9112 11.5447 10.4749C11.5993 10.0387 11.8088 9.63652 12.1351 9.34177C12.4613 9.04703 12.8826 8.8793 13.3222 8.86914C13.7617 8.85899 14.1903 9.00708 14.5298 9.28644C14.8693 9.5658 15.0972 9.95783 15.1719 10.3911C15.2466 10.8244 15.1631 11.2701 14.9367 11.647C14.7103 12.0239 14.356 12.3069 13.9385 12.4445C13.5209 12.5821 13.0677 12.5651 12.6616 12.3966C12.3262 12.2567 12.0396 12.0208 11.8376 11.7186Z" stroke="#182224" stroke-width="1.5" stroke-linecap="round" stroke-linejoin="round"/>
<path d="M9.52759 5.5376H17.5276M5.85459 5.5376H3.52759M9.52759 15.8536H17.5276M5.85459 15.8536H3.52759M11.5276 10.6956H3.52759M15.2006 10.6956H17.5276" stroke="#182224" stroke-width="1.5" stroke-linecap="round" stroke-linejoin="round"/>
</g>
<defs>
<clipPath id="clip0_2806_22305">
<rect width="15.5" height="15.502" fill="white" transform="translate(2.77759 2.94531)"/>
</clipPath>
</defs>
</svg>
