<svg width="24" height="24" viewBox="0 0 24 24" fill="none" xmlns="http://www.w3.org/2000/svg">
<path d="M4.84383 11.9538C4.77418 10.0501 5.4622 8.19641 6.75707 6.79915C8.05193 5.40189 9.84798 4.57504 11.7515 4.49988C13.655 4.57504 15.4511 5.40189 16.7459 6.79915C18.0408 8.19641 18.7288 10.0501 18.6592 11.9538C18.6592 13.6001 20.448 15.2039 20.5005 16.8539C20.5005 16.8773 20.5005 16.9006 20.5005 16.9239C20.5191 17.4317 20.3355 17.926 19.9901 18.2986C19.6447 18.6712 19.1656 18.8916 18.6579 18.9115H14.6678C14.6715 19.7215 14.3662 20.5025 13.814 21.0953C13.5515 21.3804 13.2326 21.6081 12.8776 21.7637C12.5226 21.9194 12.1391 21.9998 11.7515 21.9998C11.3639 21.9998 10.9804 21.9194 10.6254 21.7637C10.2704 21.6081 9.95154 21.3804 9.68895 21.0953C9.13681 20.5025 8.83147 19.7215 8.83518 18.9115H4.84383C4.33615 18.8916 3.85706 18.6712 3.51165 18.2986C3.16623 17.926 2.98269 17.4317 3.00129 16.9239C3.00129 16.9006 3.00129 16.8773 3.00129 16.8539C3.05504 15.2089 4.84383 13.6013 4.84383 11.9538Z" stroke="#182224" stroke-width="1.6" stroke-linecap="round" stroke-linejoin="round"/>
<path d="M8.83521 18.9117H14.6678M13.0016 2H10.5015" stroke="#182224" stroke-width="1.6" stroke-linecap="round" stroke-linejoin="round"/>
</svg>
