<svg width="24" height="24" viewBox="0 0 24 24" fill="none" xmlns="http://www.w3.org/2000/svg">
<path d="M19.1575 4.96181C17.2712 3.09628 14.7232 2.05323 12.0703 2.06059C9.41734 2.06794 6.87517 3.12511 4.99929 5.00108C3.12341 6.87704 2.06635 9.41927 2.05912 12.0722C2.05188 14.7252 3.09505 17.2731 4.96067 19.1593C6.84693 21.0248 9.39493 22.0679 12.0479 22.0605C14.7008 22.0532 17.243 20.996 19.1189 19.12C20.9948 17.2441 22.0518 14.7018 22.059 12.0489C22.0663 9.39594 21.0231 6.84798 19.1575 4.96181ZM19.5884 12.0609C19.5905 13.6244 19.103 15.1494 18.1942 16.4217L7.70215 5.92511C8.8281 5.12389 10.1529 4.64816 11.5314 4.55006C12.9098 4.45197 14.2887 4.73531 15.5167 5.36901C16.7448 6.00271 17.7747 6.9623 18.4935 8.14259C19.2123 9.32288 19.5922 10.6783 19.5916 12.0602L19.5884 12.0609ZM4.5298 12.0609C4.52764 10.4973 5.01518 8.97235 5.92396 7.70003L16.4199 18.1953C15.294 18.9966 13.9691 19.4723 12.5907 19.5704C11.2122 19.6685 9.8334 19.3851 8.60533 18.7514C7.37726 18.1177 6.34738 17.1581 5.62859 15.9779C4.90981 14.7976 4.52988 13.4422 4.53045 12.0602L4.5298 12.0609Z" fill="#182224" fill-opacity="0.75"/>
</svg>
