<svg width="21" height="21" viewBox="0 0 21 21" fill="none" xmlns="http://www.w3.org/2000/svg">
<path d="M17.1575 2.96181C15.2712 1.09628 12.7232 0.0532284 10.0703 0.0605855C7.41734 0.0679426 4.87517 1.12511 2.99929 3.00108C1.12341 4.87704 0.0663549 7.41927 0.0591194 10.0722C0.0518839 12.7252 1.09505 15.2731 2.96067 17.1593C4.84693 19.0248 7.39493 20.0679 10.0479 20.0605C12.7008 20.0532 15.243 18.996 17.1189 17.12C18.9948 15.2441 20.0518 12.7018 20.059 10.0489C20.0663 7.39594 19.0231 4.84798 17.1575 2.96181ZM17.5884 10.0609C17.5905 11.6244 17.103 13.1494 16.1942 14.4217L5.70215 3.92511C6.8281 3.12389 8.15293 2.64816 9.53138 2.55006C10.9098 2.45197 12.2887 2.73531 13.5167 3.36901C14.7448 4.00271 15.7747 4.9623 16.4935 6.14259C17.2123 7.32288 17.5922 8.67829 17.5916 10.0602L17.5884 10.0609ZM2.5298 10.0609C2.52764 8.49732 3.01518 6.97235 3.92396 5.70003L14.4199 16.1953C13.294 16.9966 11.9691 17.4723 10.5907 17.5704C9.21225 17.6685 7.8334 17.3851 6.60533 16.7514C5.37726 16.1177 4.34738 15.1581 3.62859 13.9779C2.90981 12.7976 2.52988 11.4422 2.53045 10.0602L2.5298 10.0609Z" fill="#182224" fill-opacity="0.75"/>
</svg>
