<svg width="30" height="25" viewBox="0 0 30 25" fill="none" xmlns="http://www.w3.org/2000/svg">
<g>
<circle cx="15" cy="12.8911" r="12" fill="none" stroke="#FFFFFF" stroke-width="0.2"/>
<path d="M23.075 10.6399H23.175V10.5399C23.175 8.24534 21.3084 6.37873 19.0138 6.37873C16.7192 6.37873 14.8526 8.24534 14.8526 10.5399V10.6399H14.9526H16.1936H16.2936V10.5399C16.2936 9.04009 17.514 7.81973 19.0138 7.81973C20.5137 7.81973 21.734 9.0401 21.734 10.5399V10.6399H21.834H23.075Z" fill="#FFFFFF" stroke="#FFFFFF" stroke-width="0.2"/>
<path d="M26.9981 7.30202L26.9981 7.302C27.1284 7.08496 27.3628 6.95219 27.6159 6.95219H28.8202C29.2181 6.95219 29.5407 7.27477 29.5407 7.67268C29.5407 8.0706 29.2181 8.39318 28.8202 8.39318H28.0239L27.0622 9.99601C28.4989 10.4643 29.5407 11.8156 29.5407 13.4072V19.8298C29.5407 20.2277 29.2181 20.5503 28.8202 20.5503H27.1895V22.1236C27.1895 23.1534 26.3519 23.991 25.3221 23.991H23.0283C21.9986 23.991 21.1609 23.1534 21.1609 22.1236V20.5503H18.4407H11.5593H8.83908V22.1236C8.83908 23.1534 8.00142 23.991 6.97167 23.991H4.67786C3.64811 23.991 2.81045 23.1534 2.81045 22.1236V20.5503H1.17982C0.781912 20.5503 0.459326 20.2277 0.459326 19.8298V13.4072C0.459326 11.8156 1.50105 10.4643 2.93779 9.99601L1.97611 8.39318H1.17982C0.781912 8.39318 0.459326 8.0706 0.459326 7.67268C0.459326 7.27477 0.781912 6.95219 1.17982 6.95219H2.38399C2.63713 6.95219 2.87163 7.08495 3.00184 7.30202C3.00184 7.30202 3.00185 7.30202 3.00185 7.30202L4.72215 10.1693L4.72215 10.1693C4.92683 10.5105 4.81628 10.9531 4.47501 11.1578L4.47499 11.1578C4.35916 11.2273 4.23125 11.2606 4.10497 11.2606C4.09602 11.2606 4.08804 11.2599 4.08325 11.2595L4.07798 11.2591C4.07046 11.2596 4.0568 11.2604 4.04704 11.2604C2.86341 11.2604 1.90032 12.2235 1.90032 13.4072V19.1093H3.53095H8.11858H10.8388V15.701C10.8388 15.3031 11.1614 14.9805 11.5593 14.9805H18.4406C18.8385 14.9805 19.1611 15.3031 19.1611 15.701V19.1093H21.8813H26.4689H28.0996V13.4072C28.0996 12.2235 27.1365 11.2604 25.9528 11.2604C25.9431 11.2604 25.9294 11.2596 25.9219 11.2591L25.9166 11.2595C25.9118 11.2599 25.9039 11.2606 25.8949 11.2606C25.7687 11.2606 25.6407 11.2274 25.5248 11.1578M26.9981 7.30202L25.5763 11.0721M26.9981 7.30202L25.2777 10.1693L25.3635 10.2207M26.9981 7.30202L25.3635 10.2207M25.5248 11.1578L25.5763 11.0721M25.5248 11.1578C25.5248 11.1578 25.5249 11.1578 25.5249 11.1578L25.5763 11.0721M25.5248 11.1578C25.1836 10.953 25.073 10.5105 25.2777 10.1693L25.3635 10.2207M25.5763 11.0721C25.2824 10.8957 25.1872 10.5146 25.3635 10.2207M28.1996 19.1093V19.2093H28.0996L28.1996 19.1093ZM7.39808 22.1236C7.39808 22.3586 7.20667 22.5501 6.97167 22.5501H4.67786C4.44281 22.5501 4.25145 22.3586 4.25145 22.1236V20.5503H7.39808V22.1236ZM12.2798 19.1093V16.4215H17.7202V19.1093H12.2798ZM25.7485 22.1236C25.7485 22.3586 25.5572 22.5501 25.3221 22.5501H23.0283C22.7933 22.5501 22.6019 22.3586 22.6019 22.1236V20.5503H25.7485V22.1236Z" fill="#FFFFFF" stroke="#FFFFFF" stroke-width="0.2"/>
<path d="M21.1607 15.1849C21.1607 16.5309 22.2556 17.6258 23.6016 17.6258C24.9476 17.6258 26.0425 16.5308 26.0425 15.1849C26.0425 13.8389 24.9476 12.744 23.6016 12.744C22.2556 12.744 21.1607 13.8389 21.1607 15.1849ZM22.6017 15.1849C22.6017 14.6337 23.0504 14.185 23.6016 14.185C24.1528 14.185 24.6015 14.6337 24.6015 15.1849C24.6015 15.7361 24.1528 16.1848 23.6016 16.1848C23.0504 16.1848 22.6017 15.7361 22.6017 15.1849Z" fill="#FFFFFF" stroke="#FFFFFF" stroke-width="0.2"/>
<path d="M10.8387 15.1849C10.8387 16.5309 9.74381 17.6258 8.39783 17.6258C7.05185 17.6258 5.95695 16.5308 5.95695 15.1849C5.95695 13.8389 7.05185 12.744 8.39783 12.744C9.74381 12.744 10.8387 13.8389 10.8387 15.1849ZM9.39767 15.1849C9.39767 14.6337 8.949 14.185 8.39783 14.185C7.84666 14.185 7.39799 14.6337 7.39799 15.1849C7.39799 15.7361 7.84666 16.1848 8.39783 16.1848C8.949 16.1848 9.39767 15.7361 9.39767 15.1849Z" fill="#FFFFFF" stroke="#FFFFFF" stroke-width="0.2"/>
</g>
</svg>
