<svg width="24" height="24" viewBox="0 0 24 24" fill="none" xmlns="http://www.w3.org/2000/svg">
<g opacity="0.75">
<path d="M22.626 10.6066C22.4019 10.2971 22.1064 10.0463 21.7646 9.87541C21.4229 9.70452 21.0449 9.61862 20.6628 9.62502H20.4095V8.04179C20.4096 7.72588 20.3466 7.41314 20.2243 7.12187C20.102 6.8306 19.9228 6.56666 19.6972 6.3455C19.4716 6.12434 19.2042 5.95041 18.9106 5.8339C18.6169 5.71738 18.303 5.66062 17.9872 5.66694H12.8575C12.6656 5.66581 12.4793 5.60186 12.3271 5.48487L9.16065 3.01503C8.72726 2.68132 8.19564 2.5004 7.64866 2.50048H3.34227C3.02643 2.49416 2.7125 2.55092 2.41886 2.66743C2.12523 2.78395 1.85779 2.95788 1.63221 3.17903C1.40663 3.40019 1.22744 3.66413 1.10513 3.9554C0.982827 4.24667 0.919861 4.55942 0.919925 4.87532V19.1244C0.919237 19.5626 1.04573 19.9916 1.28407 20.3593C1.50311 20.7075 1.8067 20.9947 2.16657 21.194C2.52644 21.3933 2.93089 21.4983 3.34227 21.4993H18.383C18.8998 21.5121 19.4068 21.356 19.8269 21.0545C20.2469 20.7531 20.5571 20.3228 20.7103 19.829L22.9744 12.7044C23.0833 12.3517 23.1086 11.9785 23.0481 11.6144C22.9877 11.2502 22.8431 10.9052 22.626 10.6066ZM2.50316 4.87532C2.50296 4.76725 2.5249 4.66027 2.56762 4.561C2.61034 4.46172 2.67293 4.37225 2.75155 4.29808C2.83016 4.22392 2.92313 4.16663 3.02473 4.12977C3.12632 4.0929 3.23439 4.07722 3.34227 4.08371H7.64866C7.84321 4.08369 8.03236 4.14767 8.18696 4.26578L11.3534 6.73562C11.7838 7.06927 12.3129 7.25029 12.8575 7.25017H17.9872C18.0951 7.24369 18.2031 7.25936 18.3047 7.29623C18.4063 7.3331 18.4993 7.39038 18.5779 7.46455C18.6565 7.53871 18.7191 7.62819 18.7618 7.72746C18.8045 7.82674 18.8265 7.93371 18.8263 8.04179V9.62502H6.16042C5.64757 9.61733 5.14601 9.77589 4.73077 10.077C4.31553 10.3781 4.00893 10.8055 3.85682 11.2953L2.50316 15.5938V4.87532ZM21.5019 12.2294L19.2379 19.354C19.1871 19.5223 19.0817 19.6688 18.9384 19.7706C18.7951 19.8724 18.6219 19.9235 18.4463 19.916H3.4056C3.22706 19.9156 3.05296 19.8604 2.90688 19.7577L5.44005 11.7703C5.49087 11.602 5.59625 11.4554 5.73958 11.3537C5.88292 11.2519 6.05604 11.2007 6.23167 11.2083H20.6628C20.7962 11.2073 20.928 11.2376 21.0476 11.2967C21.1672 11.3558 21.2713 11.4421 21.3515 11.5486C21.4269 11.6431 21.4797 11.7536 21.5057 11.8716C21.5318 11.9896 21.5305 12.112 21.5019 12.2294Z" fill="white"/>
</g>
</svg>
