<svg width="27" height="25" viewBox="0 0 27 25" fill="none" xmlns="http://www.w3.org/2000/svg">
<circle cx="13.75" cy="12.8911" r="12" fill="white"/>
<path opacity="0.75" d="M26.0536 11.2777C25.7941 10.9193 25.4519 10.6289 25.0562 10.431C24.6604 10.2331 24.2228 10.1337 23.7804 10.1411H23.4871V8.30786C23.4871 7.94207 23.4142 7.57995 23.2726 7.24269C23.131 6.90543 22.9235 6.59981 22.6623 6.34373C22.4011 6.08766 22.0914 5.88627 21.7514 5.75135C21.4115 5.61644 21.048 5.55072 20.6822 5.55804H14.7426C14.5204 5.55672 14.3047 5.48268 14.1285 5.34721L10.4621 2.4874C9.96025 2.101 9.34468 1.89152 8.71134 1.8916H3.72499C3.35928 1.88429 2.99578 1.95001 2.65578 2.08492C2.31578 2.21983 2.00612 2.42123 1.74492 2.6773C1.48372 2.93338 1.27624 3.23899 1.13462 3.57625C0.993003 3.91351 0.920096 4.27564 0.920169 4.64143V21.1404C0.919373 21.6478 1.06584 22.1445 1.34181 22.5703C1.59544 22.9735 1.94696 23.3059 2.36366 23.5367C2.78035 23.7675 3.24866 23.8891 3.72499 23.8902H21.1405C21.739 23.9051 22.326 23.7243 22.8124 23.3753C23.2988 23.0262 23.658 22.5279 23.8354 21.9562L26.4569 13.7067C26.583 13.2983 26.6123 12.8662 26.5423 12.4445C26.4723 12.0229 26.3049 11.6233 26.0536 11.2777ZM2.75339 4.64143C2.75316 4.51629 2.77856 4.39242 2.82803 4.27747C2.87749 4.16252 2.94997 4.05892 3.041 3.97304C3.13202 3.88717 3.23967 3.82084 3.35731 3.77815C3.47494 3.73546 3.60007 3.71731 3.72499 3.72482H8.71134C8.93661 3.7248 9.15563 3.79888 9.33463 3.93564L13.0011 6.79546C13.4994 7.18179 14.1121 7.39139 14.7426 7.39125H20.6822C20.8072 7.38374 20.9323 7.40189 21.0499 7.44458C21.1676 7.48727 21.2752 7.5536 21.3662 7.63947C21.4573 7.72535 21.5297 7.82895 21.5792 7.9439C21.6287 8.05886 21.6541 8.18272 21.6538 8.30786V10.1411H6.98811C6.39429 10.1322 5.81353 10.3158 5.33273 10.6644C4.85192 11.013 4.49691 11.5079 4.32079 12.0751L2.75339 17.0523V4.64143ZM24.752 13.1567L22.1305 21.4062C22.0716 21.601 21.9496 21.7708 21.7837 21.8886C21.6177 22.0064 21.4172 22.0657 21.2139 22.057H3.79832C3.59159 22.0565 3.39 21.9925 3.22086 21.8737L6.154 12.6251C6.21284 12.4302 6.33487 12.2605 6.50083 12.1427C6.66679 12.0248 6.86725 11.9656 7.07061 11.9743H23.7804C23.9348 11.9732 24.0874 12.0083 24.2259 12.0767C24.3643 12.1452 24.4849 12.2451 24.5778 12.3684C24.6651 12.4778 24.7262 12.6057 24.7564 12.7424C24.7865 12.879 24.785 13.0207 24.752 13.1567Z" fill="#182224"/>
</svg>
