<svg width="24" height="24" viewBox="0 0 24 24" fill="none" xmlns="http://www.w3.org/2000/svg">
<path opacity="0.75" d="M14.5208 14.8127H19.5625C19.9696 14.8127 20.3 14.4823 20.3 14.0752C20.3 13.6681 19.9696 13.3377 19.5625 13.3377H14.5208C14.1137 13.3377 13.7833 13.6681 13.7833 14.0752C13.7833 14.4823 14.1137 14.8127 14.5208 14.8127ZM5.35417 16.1876H9.47917C10.3914 16.1876 11.1333 15.4457 11.1333 14.5335V13.1585C11.1333 12.2463 10.3914 11.5043 9.47917 11.5043H5.35417C4.44197 11.5043 3.7 12.2463 3.7 13.1585V14.5335C3.7 15.4457 4.44197 16.1876 5.35417 16.1876ZM5.175 13.1585C5.175 13.0596 5.25528 12.9793 5.35417 12.9793H9.47917C9.57805 12.9793 9.65833 13.0596 9.65833 13.1585V14.5335C9.65833 14.6324 9.57805 14.7126 9.47917 14.7126H5.35417C5.25528 14.7126 5.175 14.6324 5.175 14.5335V13.1585ZM21.575 6.07496H2.425V4.43746C2.425 3.83349 2.91686 3.34163 3.52083 3.34163H20.4792C21.0831 3.34163 21.575 3.83349 21.575 4.43746V6.07496ZM2.425 7.54996H21.575V19.5625C21.575 20.1664 21.0831 20.6583 20.4792 20.6583H3.52083C2.91686 20.6583 2.425 20.1664 2.425 19.5625V7.54996ZM3.52083 22.1333H20.4792C21.8974 22.1333 23.05 20.9807 23.05 19.5625V6.81246V4.43746C23.05 3.01926 21.8974 1.86663 20.4792 1.86663H3.52083C2.10264 1.86663 0.95 3.01926 0.95 4.43746V6.81246V19.5625C0.95 20.9807 2.10264 22.1333 3.52083 22.1333Z" fill="white" stroke="white" stroke-width="0.1"/>
</svg>
