<svg width="25" height="26" viewBox="0 0 25 26" fill="none" xmlns="http://www.w3.org/2000/svg">
<ellipse cx="12.5" cy="13.2048" rx="12" ry="12.3137" fill="white"/>
<g opacity="0.75">
<path d="M6.80879 7.84581C6.80879 9.70172 7.70202 11.3526 9.08062 12.392C5.60715 13.7603 3.14214 17.1484 3.14214 21.1022C3.14214 22.8406 4.55633 24.2548 6.2947 24.2548H18.7049C20.4433 24.2548 21.8575 22.8406 21.8575 21.1022C21.8575 17.1484 19.3925 13.7603 15.919 12.392C17.2976 11.3526 18.1908 9.70172 18.1908 7.84581C18.1908 4.70773 15.6379 2.15479 12.4998 2.15479C9.36174 2.15479 6.80879 4.70773 6.80879 7.84581ZM8.60112 7.84581C8.60112 5.69611 10.3501 3.94711 12.4998 3.94711C14.6495 3.94711 16.3985 5.69611 16.3985 7.84581C16.3985 9.99551 14.6495 11.7446 12.4998 11.7446C10.3501 11.7446 8.60112 9.99551 8.60112 7.84581ZM6.2947 22.4625C5.54471 22.4625 4.93446 21.8522 4.93446 21.1022C4.93446 16.9306 8.32827 13.5368 12.4999 13.5368C16.6715 13.5368 20.0653 16.9306 20.0653 21.1022C20.0652 21.8522 19.455 22.4625 18.7049 22.4625H6.2947Z" fill="#182224" stroke="#182224" stroke-width="0.1"/>
</g>
</svg>
