<svg width="20" height="20" viewBox="0 0 20 20" fill="none" xmlns="http://www.w3.org/2000/svg">
<path d="M1 8.071L1 13.857C1 15.221 1.54185 16.5292 2.50635 17.4937C3.47085 18.4581 4.77899 19 6.143 19H8.714M1 8.071L1 6.142C1.00027 4.77817 1.54223 3.47028 2.5067 2.506C3.47117 1.54171 4.77916 1 6.143 1H8.714M1 8.071H8.714M8.714 19H13.857C15.221 19 16.5292 18.4581 17.4937 17.4937C18.4582 16.5292 19 15.221 19 13.857V12.571M8.714 19V12.571M8.714 1V8.071M8.714 1H13.857C15.221 1 16.5292 1.54185 17.4937 2.50635C18.4582 3.47085 19 4.77899 19 6.143V12.571M8.714 8.071V12.571M8.714 12.571H19" stroke="white" stroke-width="1.5" stroke-linecap="round" stroke-linejoin="round"/>
</svg>
