<svg width="24" height="24" viewBox="0 0 24 24" fill="none" xmlns="http://www.w3.org/2000/svg">
<path d="M18.9997 4.49995H15.2498V4.08329C15.2498 2.93456 14.3152 2 13.1665 2H10.6665C9.5178 2 8.58324 2.93456 8.58324 4.08329V4.49995H4.83332C4.61231 4.49995 4.40035 4.58774 4.24407 4.74402C4.0878 4.9003 4 5.11225 4 5.33326V6.58324C4 6.80425 4.0878 7.0162 4.24407 7.17248C4.40035 7.32876 4.61231 7.41655 4.83332 7.41655H18.9997C19.2207 7.41655 19.4327 7.32876 19.5889 7.17248C19.7452 7.0162 19.833 6.80425 19.833 6.58324V5.33326C19.833 5.11225 19.7452 4.9003 19.5889 4.74402C19.4327 4.58774 19.2207 4.49995 18.9997 4.49995ZM10.2499 4.08329C10.2499 3.85371 10.4369 3.66663 10.6665 3.66663H13.1665C13.3961 3.66663 13.5831 3.85371 13.5831 4.08329V4.49995H10.2499V4.08329ZM18.6997 8.52278C18.6216 8.43685 18.5264 8.36819 18.4202 8.3212C18.314 8.2742 18.1992 8.24991 18.083 8.24987H5.74996C5.63384 8.24993 5.519 8.27424 5.41281 8.32126C5.30663 8.36827 5.21144 8.43695 5.13334 8.5229C5.05524 8.60884 4.99595 8.71016 4.95928 8.82034C4.92262 8.93053 4.90937 9.04716 4.9204 9.16277L5.94454 19.8659C6.06079 21.0825 7.13118 22 8.43449 22H15.3985C16.7014 22 17.7722 21.0825 17.8885 19.8659L18.9126 9.16277C18.9237 9.04714 18.9105 8.93048 18.8738 8.82027C18.8371 8.71006 18.7778 8.60873 18.6997 8.52278ZM9.96904 19.9146C9.95113 19.9155 9.93363 19.9163 9.91571 19.9163C9.70393 19.9161 9.50019 19.8352 9.34587 19.6902C9.19155 19.5452 9.09824 19.3468 9.08489 19.1355L8.5849 11.219C8.5711 10.9984 8.6454 10.7814 8.7915 10.6157C8.9376 10.4499 9.14353 10.3489 9.36406 10.3348C9.58449 10.3215 9.80124 10.3959 9.96693 10.5419C10.1326 10.6879 10.2337 10.8936 10.2482 11.114L10.7482 19.0305C10.762 19.251 10.6877 19.468 10.5416 19.6338C10.3955 19.7996 10.1896 19.9006 9.96904 19.9146ZM14.7481 19.1355C14.7418 19.2451 14.7138 19.3524 14.6659 19.4511C14.6179 19.5499 14.5509 19.6383 14.4688 19.7111C14.3866 19.7839 14.2908 19.8397 14.187 19.8754C14.0831 19.9111 13.9733 19.9259 13.8637 19.919C13.7541 19.912 13.647 19.8835 13.5484 19.8351C13.4499 19.7866 13.3619 19.7192 13.2896 19.6366C13.2172 19.5541 13.1618 19.458 13.1267 19.354C13.0916 19.25 13.0773 19.14 13.0848 19.0305L13.5848 11.114C13.5998 10.8942 13.7012 10.6894 13.8669 10.5442C14.0325 10.399 14.2489 10.3253 14.4687 10.3391C14.6885 10.353 14.8939 10.4534 15.0399 10.6182C15.186 10.7831 15.2608 10.9991 15.2481 11.219L14.7481 19.1355Z" fill="#182224" fill-opacity="0.75"/>
</svg>
