<svg width="21" height="21" viewBox="0 0 21 21" fill="none" xmlns="http://www.w3.org/2000/svg">
<path d="M15.222 18.9453H6.33313C5.38347 18.9453 4.4906 18.5755 3.819 17.9039C3.14744 17.2324 2.77759 16.3395 2.77759 15.3897V14.5008C2.77759 14.0099 3.17554 13.6119 3.66648 13.6119C4.15743 13.6119 4.55538 14.0099 4.55538 14.5008V15.3897C4.55538 15.8646 4.74032 16.311 5.07604 16.6468C5.41185 16.9826 5.85827 17.1675 6.33313 17.1675H15.222C15.6968 17.1675 16.1433 16.9826 16.479 16.6468C16.8148 16.311 16.9998 15.8645 16.9998 15.3897V14.5008C16.9998 14.0099 17.3977 13.6119 17.8887 13.6119C18.3796 13.6119 18.7776 14.0099 18.7776 14.5008V15.3897C18.7776 16.3394 18.4077 17.2322 17.7361 17.9039C17.0645 18.5755 16.1717 18.9453 15.222 18.9453ZM10.7776 15.3897C10.6546 15.3897 10.5375 15.3647 10.431 15.3196C10.3317 15.2776 10.2383 15.2167 10.1566 15.1369C10.1566 15.1369 10.1566 15.1368 10.1566 15.1368C10.156 15.1363 10.1554 15.1357 10.1548 15.1351C10.1546 15.135 10.1544 15.1347 10.1543 15.1346C10.1538 15.1342 10.1534 15.1337 10.1529 15.1332C10.1526 15.1329 10.1523 15.1327 10.152 15.1323C10.1517 15.132 10.1513 15.1316 10.151 15.1314C10.1504 15.1307 10.1497 15.1301 10.1491 15.1294L6.59349 11.5738C6.24638 11.2267 6.24638 10.6639 6.59349 10.3167C6.94061 9.96961 7.50347 9.96958 7.85059 10.3167L9.88871 12.3549V3.83421C9.88868 3.34326 10.2866 2.94531 10.7776 2.94531C11.2685 2.94531 11.6665 3.34326 11.6665 3.83421V12.3548L13.7046 10.3167C14.0517 9.96961 14.6146 9.96961 14.9617 10.3167C15.3088 10.6639 15.3088 11.2267 14.9617 11.5738L11.4061 15.1294C11.4055 15.13 11.4048 15.1307 11.4042 15.1313C11.4038 15.1316 11.4035 15.132 11.4032 15.1323C11.4029 15.1326 11.4026 15.1329 11.4023 15.1332C11.4019 15.1337 11.4014 15.1341 11.4009 15.1345C11.4008 15.1347 11.4005 15.1349 11.4004 15.135C11.3998 15.1356 11.3992 15.1362 11.3987 15.1368C11.3986 15.1368 11.3986 15.1368 11.3986 15.1368C11.3888 15.1464 11.3789 15.1556 11.3688 15.1646C11.2944 15.231 11.2114 15.2828 11.1238 15.3197C11.1235 15.3198 11.1232 15.32 11.1229 15.3201C11.1226 15.3202 11.1223 15.3204 11.122 15.3205C11.016 15.3651 10.8997 15.3897 10.7776 15.3897Z" fill="#182224"/>
</svg>
