<svg width="24" height="24" viewBox="0 0 24 24" fill="none" xmlns="http://www.w3.org/2000/svg">
<path d="M12.8132 16.7194L12.8132 16.7195C12.5886 16.944 12.2944 17.0563 12 17.0563C11.7055 17.0563 11.4114 16.944 11.1868 16.7194L6.75802 12.2907C6.3089 11.8415 6.3089 11.1134 6.75802 10.6643C7.20713 10.2152 7.93526 10.2152 8.38437 10.6643L10.6793 12.9592L10.85 13.1299V12.8885V3.25C10.85 2.61488 11.3649 2.1 12 2.1C12.6351 2.1 13.15 2.61488 13.15 3.25V12.8885V13.1299L13.3207 12.9592L15.6156 10.6643C16.0647 10.2152 16.7929 10.2152 17.242 10.6643C17.6911 11.1134 17.6911 11.8415 17.242 12.2907L12.8132 16.7194ZM21.9 20.75C21.9 21.3851 21.3851 21.9 20.75 21.9H3.25C2.61488 21.9 2.1 21.3851 2.1 20.75C2.1 20.1149 2.61488 19.6 3.25 19.6H20.75C21.3851 19.6 21.9 20.1149 21.9 20.75Z" fill="#182224" fill-opacity="0.75" stroke="white" stroke-width="0.2"/>
</svg>
