<svg width="24" height="24" viewBox="0 0 24 24" fill="none" xmlns="http://www.w3.org/2000/svg">
<g opacity="0.75">
<path d="M15.2934 12.0077C15.2934 13.8288 13.8217 15.3005 12.0006 15.3005C10.1794 15.3005 8.70776 13.8288 8.70776 12.0077C8.70776 10.1865 10.1794 8.71484 12.0006 8.71484C13.8217 8.71484 15.2934 10.1865 15.2934 12.0077Z" stroke="#182224" stroke-width="2" stroke-linecap="round" stroke-linejoin="round"/>
<path d="M12.0001 19.611C15.2469 19.611 18.273 17.6978 20.3793 14.3866C21.2071 13.0897 21.2071 10.9098 20.3793 9.613C18.273 6.30181 15.2469 4.38867 12.0001 4.38867C8.75332 4.38867 5.72726 6.30181 3.62097 9.613C2.79317 10.9098 2.79317 13.0897 3.62097 14.3866C5.72726 17.6978 8.75332 19.611 12.0001 19.611Z" stroke="#182224" stroke-width="2" stroke-linecap="round" stroke-linejoin="round"/>
</g>
</svg>
