<svg width="24" height="24" viewBox="0 0 24 24" fill="none" xmlns="http://www.w3.org/2000/svg">
<g opacity="0.75">
<path d="M21.6243 7.13397L12.3386 2.18334C12.1279 2.07089 11.8729 2.07089 11.6621 2.18334L2.37643 7.13397C2.14429 7.25703 2 7.49607 2 7.75633V21.1938C2 21.5841 2.31929 21.901 2.71429 21.901H21.2857C21.6807 21.901 22 21.5841 22 21.1938V7.75633C22 7.49607 21.8557 7.25703 21.6243 7.13397ZM7 14.8287H17V16.9504H7V14.8287ZM17 13.4142H7V11.2925H17V13.4142ZM7 20.4865V18.3648H17V20.4865H7ZM20.5714 20.4865H18.4286V10.5853C18.4286 10.1949 18.1093 9.87803 17.7143 9.87803H6.28571C5.89071 9.87803 5.57143 10.1949 5.57143 10.5853V20.4865H3.42857V8.17855L12 3.60912L20.5714 8.17855V20.4865Z" fill="white"/>
<path fill-rule="evenodd" clip-rule="evenodd" d="M21.6716 7.04674L12.386 2.09618L21.6716 7.04674ZM12.386 2.09618C12.1457 1.96795 11.855 1.96793 11.6147 2.09618H12.386ZM11.6147 2.09618L2.32925 7.04668C2.32922 7.0467 2.32929 7.04666 2.32925 7.04668C2.06462 7.18701 1.90002 7.45964 1.90002 7.75633V21.1938C1.90002 21.6388 2.26402 22 2.71431 22H21.2857C21.736 22 22.1 21.6388 22.1 21.1938V7.75633C22.1 7.45968 21.9355 7.18708 21.6716 7.04674M2.37643 7.13397L11.6621 2.18334C11.8729 2.07089 12.1279 2.07089 12.3386 2.18334L21.6243 7.13397C21.8557 7.25703 22 7.49607 22 7.75633V21.1938C22 21.5841 21.6807 21.901 21.2857 21.901H2.71429C2.31929 21.901 2 21.5841 2 21.1938V7.75633C2 7.49607 2.14429 7.25703 2.37643 7.13397ZM16.9 14.9277V16.8513H7.10002V14.9277H16.9ZM7.10002 13.3152V11.3915H16.9V13.3152H7.10002ZM7.10002 18.4638V20.3875H16.9V18.4638H7.10002ZM18.5286 20.3875H20.4715V8.23769L12 3.72157L3.5286 8.23769V20.3875H5.47145V10.5853C5.47145 10.1403 5.83545 9.77902 6.28574 9.77902H17.7143C18.1646 9.77902 18.5286 10.1403 18.5286 10.5853V20.3875ZM3.42857 8.17855V20.4865H5.57143V10.5853C5.57143 10.1949 5.89071 9.87803 6.28571 9.87803H17.7143C18.1093 9.87803 18.4286 10.1949 18.4286 10.5853V20.4865H20.5714V8.17855L12 3.60912L3.42857 8.17855ZM7 14.8287V16.9504H17V14.8287H7ZM17 13.4142V11.2925H7V13.4142H17ZM7 20.4865H17V18.3648H7V20.4865Z" fill="white"/>
</g>
</svg>
