<svg width="25" height="26" viewBox="0 0 25 26" fill="none" xmlns="http://www.w3.org/2000/svg">
<ellipse cx="12.25" cy="13.2048" rx="12" ry="12.3137" fill="white"/>
<g opacity="0.75">
<path d="M22.8366 7.85216L12.6223 2.40646C12.3905 2.28277 12.11 2.28277 11.8782 2.40646L1.66394 7.85216C1.40858 7.98752 1.24987 8.25047 1.24987 8.53676V23.3179C1.24987 23.7474 1.60108 24.0959 2.03558 24.0959H22.4642C22.8987 24.0959 23.2499 23.7474 23.2499 23.3179V8.53676C23.2499 8.25047 23.0912 7.98752 22.8366 7.85216ZM6.74987 16.3163H17.7499V18.6502H6.74987V16.3163ZM17.7499 14.7604H6.74987V12.4265H17.7499V14.7604ZM6.74987 22.54V20.2061H17.7499V22.54H6.74987ZM21.6784 22.54H19.3213V11.6486C19.3213 11.2191 18.9701 10.8706 18.5356 10.8706H5.96415C5.52965 10.8706 5.17844 11.2191 5.17844 11.6486V22.54H2.82129V9.0012L12.2499 3.97482L21.6784 9.0012V22.54Z" fill="#182224"/>
<path fill-rule="evenodd" clip-rule="evenodd" d="M22.8887 7.7562L12.6745 2.31059L22.8887 7.7562ZM12.6745 2.31059C12.4102 2.16953 12.0904 2.16951 11.8261 2.31059H12.6745ZM11.8261 2.31059L1.61204 7.75614C1.61201 7.75616 1.61208 7.75612 1.61204 7.75614C1.32095 7.9105 1.13989 8.2104 1.13989 8.53676V23.3179C1.13989 23.8074 1.54028 24.2048 2.03561 24.2048H22.4642C22.9595 24.2048 23.3599 23.8074 23.3599 23.3179V8.53676C23.3599 8.21044 23.1789 7.91058 22.8887 7.7562M1.66394 7.85216L11.8782 2.40646C12.11 2.28277 12.3905 2.28277 12.6223 2.40646L22.8366 7.85216C23.0912 7.98752 23.2499 8.25047 23.2499 8.53676V23.3179C23.2499 23.7474 22.8987 24.0959 22.4642 24.0959H2.03558C1.60108 24.0959 1.24987 23.7474 1.24987 23.3179V8.53676C1.24987 8.25047 1.40858 7.98752 1.66394 7.85216ZM17.6399 16.4252V18.5413H6.85989V16.4252H17.6399ZM6.85989 14.6515V12.5354H17.6399V14.6515H6.85989ZM6.85989 20.315V22.431H17.6399V20.315H6.85989ZM19.4313 22.431H21.5685V9.06625L12.2499 4.09852L2.93132 9.06625V22.431H5.06846V11.6486C5.06846 11.1591 5.46886 10.7617 5.96418 10.7617H18.5356C19.0309 10.7617 19.4313 11.1591 19.4313 11.6486V22.431ZM2.82129 9.0012V22.54H5.17844V11.6486C5.17844 11.2191 5.52965 10.8706 5.96415 10.8706H18.5356C18.9701 10.8706 19.3213 11.2191 19.3213 11.6486V22.54H21.6784V9.0012L12.2499 3.97482L2.82129 9.0012ZM6.74987 16.3163V18.6502H17.7499V16.3163H6.74987ZM17.7499 14.7604V12.4265H6.74987V14.7604H17.7499ZM6.74987 22.54H17.7499V20.2061H6.74987V22.54Z" fill="#182224"/>
</g>
</svg>
