<svg width="24" height="24" viewBox="0 0 24 24" fill="none" xmlns="http://www.w3.org/2000/svg">
<g opacity="0.75">
<path d="M12 17.7617C12.5393 17.7617 12.9766 17.3245 12.9766 16.7852C12.9766 16.2458 12.5393 15.8086 12 15.8086C11.4607 15.8086 11.0234 16.2458 11.0234 16.7852C11.0234 17.3245 11.4607 17.7617 12 17.7617Z" fill="white"/>
<path d="M12 2C6.47328 2 2 6.47254 2 12C2 17.5267 6.47254 22 12 22C17.5267 22 22 17.5275 22 12C22 6.47328 17.5275 2 12 2ZM12 20.4375C7.33684 20.4375 3.5625 16.6638 3.5625 12C3.5625 7.33684 7.33621 3.5625 12 3.5625C16.6632 3.5625 20.4375 7.33621 20.4375 12C20.4375 16.6632 16.6638 20.4375 12 20.4375Z" fill="white"/>
<path d="M12 7.01953C10.2769 7.01953 8.875 8.42141 8.875 10.1445C8.875 10.576 9.22477 10.9258 9.65625 10.9258C10.0877 10.9258 10.4375 10.576 10.4375 10.1445C10.4375 9.28297 11.1384 8.58203 12 8.58203C12.8616 8.58203 13.5625 9.28297 13.5625 10.1445C13.5625 11.0061 12.8616 11.707 12 11.707C11.5685 11.707 11.2188 12.0568 11.2188 12.4883V14.4414C11.2188 14.8729 11.5685 15.2227 12 15.2227C12.4315 15.2227 12.7812 14.8729 12.7812 14.4414V13.1707C14.1276 12.8229 15.125 11.598 15.125 10.1445C15.125 8.42141 13.7231 7.01953 12 7.01953Z" fill="white"/>
</g>
</svg>
