<svg width="18" height="15" viewBox="0 0 18 15" fill="none" xmlns="http://www.w3.org/2000/svg">
<path d="M7.60001 4.44684V1.47048C7.60001 1.25978 7.47331 1.06938 7.27942 0.986785C7.08622 0.904886 6.86012 0.946185 6.70962 1.09388L0.759696 6.86881C0.657497 6.96751 0.600098 7.10331 0.600098 7.24541C0.600098 7.38751 0.657497 7.5233 0.759696 7.622L6.70962 13.3969C6.86152 13.5439 7.08692 13.5852 7.27942 13.504C7.47331 13.4214 7.60001 13.231 7.60001 13.0203V10.0454H8.5926C11.8378 10.0454 14.8295 11.8094 16.3996 14.6457L16.4143 14.6723C16.5081 14.8431 16.6859 14.9453 16.8749 14.9453C16.9183 14.9453 16.9617 14.9404 17.0051 14.9292C17.2375 14.8697 17.3999 14.6604 17.3999 14.4203C17.3999 8.97859 13.02 4.54064 7.60001 4.44684Z" fill="white"/>
</svg>
