<svg width="24" height="24" viewBox="0 0 24 24" fill="none" xmlns="http://www.w3.org/2000/svg">
<g opacity="0.75">
<path d="M17.7203 3.19479L20.0557 5.0955C20.1673 5.20424 20.2558 5.33437 20.3159 5.4781C20.3761 5.62184 20.4066 5.77623 20.4057 5.93203C20.4048 6.08784 20.3725 6.24187 20.3107 6.3849C20.2489 6.52793 20.1589 6.65703 20.0461 6.76448L18.2714 8.92574L12.2319 16.2944C12.1273 16.4176 11.9866 16.5046 11.8297 16.543L8.69823 17.2634C8.49794 17.2717 8.30192 17.2039 8.14958 17.0736C7.99723 16.9433 7.89983 16.7602 7.87695 16.561L8.02344 13.4716C8.0343 13.3139 8.09674 13.1641 8.20114 13.0454L13.9801 6.00323L16.0153 3.52018C16.2059 3.26072 16.4876 3.08296 16.8039 3.02261C17.1202 2.96225 17.4475 3.02377 17.7203 3.19479Z" stroke="#182224" stroke-width="2" stroke-linecap="round" stroke-linejoin="round"/>
<path d="M3.59424 21.0002H20.0439M13.9803 6.00342C14.4606 7.19331 15.9915 9.44463 18.2716 8.92953" stroke="#182224" stroke-width="2" stroke-linecap="round" stroke-linejoin="round"/>
</g>
</svg>
