<svg width="21" height="21" viewBox="0 0 21 21" fill="none" xmlns="http://www.w3.org/2000/svg">
<path d="M1.40161 9.54512C1.40134 7.71766 2.03472 5.94663 3.19385 4.53381C4.35298 3.12099 5.96612 2.1538 7.75843 1.79702C9.55073 1.44025 11.4113 1.71598 13.0231 2.57722C14.6349 3.43847 15.8982 4.83194 16.5978 6.52021C17.2973 8.20848 17.3898 10.0871 16.8596 11.8359C16.3293 13.5848 15.209 15.0956 13.6897 16.1111C12.1703 17.1266 10.3459 17.5838 8.52717 17.4049C6.70848 17.226 5.00809 16.422 3.71574 15.1299C2.98217 14.3966 2.40023 13.5259 2.00317 12.5677C1.60611 11.6094 1.4017 10.5824 1.40161 9.54512Z" stroke="#818181" stroke-width="2" stroke-linecap="round" stroke-linejoin="round"/>
<path d="M14.8865 15.1312L19.4003 19.6451" stroke="#818181" stroke-width="2" stroke-linecap="round" stroke-linejoin="round"/>
</svg>
