<svg width="26" height="27" viewBox="0 0 26 27" fill="none" xmlns="http://www.w3.org/2000/svg">
<ellipse cx="13" cy="13.2048" rx="12" ry="12.3137" fill="white"/>
<g opacity="0.75">
<path d="M23.9796 16.8492L23.9796 16.8492C26.0067 18.8764 26.0067 22.1579 23.9796 24.185C21.9568 26.2078 18.6667 26.2077 16.6439 24.185L16.9974 23.8314L16.6439 24.185C15.5461 23.0872 15.0081 21.5567 15.1472 20.0368L11.6741 16.5637L11.0554 17.1824L11.3647 17.4917C11.9262 18.0531 11.926 18.9632 11.3648 19.5245L11.3647 19.5245L8.97641 21.9128C8.87894 22.8337 8.48487 23.6912 7.83648 24.3761L7.47337 24.0324L7.83648 24.3761C7.02669 25.2315 5.92832 25.7042 4.75037 25.7042C2.40663 25.7042 0.500648 23.7982 0.500648 21.4545C0.500648 20.2916 0.984297 19.1678 1.82874 18.3684L1.82876 18.3683C2.5137 17.72 3.37131 17.326 4.2921 17.2285L6.6804 14.8402C6.94999 14.5706 7.3156 14.4192 7.69686 14.4192C8.07816 14.4192 8.44373 14.5707 8.71326 14.8401L8.71331 14.8402L9.02262 15.1495L9.64127 14.5308L7.92681 12.8164C5.91187 13.2542 3.78334 12.6501 2.29453 11.1613C0.572488 9.43929 0.0339759 6.86115 0.922699 4.59335L0.922703 4.59335C1.09964 4.14187 1.49232 3.80998 1.96703 3.71078L23.9796 16.8492ZM23.9796 16.8492C22.8818 15.7515 21.3515 15.2132 19.8314 15.3526L16.3583 11.8794L18.4155 9.82214H20.4716C20.9765 9.82214 21.4444 9.55723 21.7041 9.12427C21.7041 9.12426 21.7041 9.12425 21.7042 9.12425L23.6928 5.80999L23.264 5.55273L23.6928 5.80998C24.0321 5.24438 23.943 4.52041 23.4766 4.05402L22.1509 2.7283L22.1509 2.72827M23.9796 16.8492L22.1509 2.72827M22.1509 2.72827C21.6845 2.26196 20.9606 2.17272 20.3949 2.51212L17.0806 4.50068C17.0806 4.50068 17.0806 4.50068 17.0806 4.50069C16.6476 4.76046 16.3827 5.22841 16.3827 5.73328V7.78932L14.3254 9.84658L12.611 8.13213M22.1509 2.72827L12.611 8.13213M4.38794 1.12797L4.38797 1.12796C6.65578 0.239351 9.23391 0.77779 10.9559 2.49989C10.9559 2.4999 10.9559 2.4999 10.9559 2.49991M4.38794 1.12797L10.6024 2.85345L10.9559 2.49991M4.38794 1.12797C3.93645 1.30491 3.60455 1.6976 3.50537 2.17233C3.40618 2.64705 3.55309 3.1398 3.89599 3.4827L3.896 3.4827M4.38794 1.12797L3.896 3.4827M10.9559 2.49991C12.4448 3.98875 13.0489 6.11731 12.611 8.13213M10.9559 2.49991L12.611 8.13213M3.896 3.4827L5.8507 5.43737M3.896 3.4827L5.8507 5.43737M3.80516 20.4562L3.80511 20.4562C3.52708 20.7194 3.37551 21.0716 3.37551 21.4546C3.37551 22.2122 3.99271 22.8294 4.75037 22.8294C5.13334 22.8294 5.48549 22.6779 5.74867 22.3998L6.1118 22.7435L5.74868 22.3998C6.01177 22.1219 6.14415 21.7611 6.12313 21.3768C6.12312 21.3767 6.12312 21.3767 6.12312 21.3767L6.62237 21.3493L3.80516 20.4562ZM3.80516 20.4562C4.08211 20.194 4.44215 20.0607 4.82831 20.0818C5.23642 20.1044 5.63465 19.9517 5.92328 19.6629C5.92331 19.6629 5.92334 19.6629 5.92337 19.6628L7.6968 17.8895L8.31542 18.5081L6.54203 20.2815M3.80516 20.4562L6.54203 20.2815M6.54203 20.2815C6.54201 20.2815 6.542 20.2815 6.54199 20.2815L6.54203 20.2815ZM4.04161 8.80197C4.22674 8.88616 4.42941 8.93093 4.63671 8.93093H7.28818C8.08207 8.93093 8.72561 8.28738 8.72561 7.4935V4.84202C8.72561 4.63477 8.68085 4.43209 8.59667 4.24696C8.71074 4.33406 8.8199 4.42937 8.92324 4.53271C8.92324 4.53271 8.92324 4.53271 8.92325 4.53272L4.04161 8.80197ZM4.04161 8.80197C4.1287 8.91602 4.224 9.02516 4.32734 9.1285C5.2414 10.0425 6.60966 10.3283 7.81365 9.85652L7.81369 9.85651C8.34562 9.6481 8.9505 9.77442 9.35452 10.1784L17.7057 18.5296L17.7057 18.5297C18.0684 18.8925 18.2104 19.4211 18.078 19.9169C17.8653 20.7134 18.0953 21.5707 18.6766 22.1521C19.5779 23.0533 21.0455 23.0533 21.9467 22.1521L22.3003 22.5056L21.9467 22.1521C22.8506 21.2483 22.8506 19.7859 21.9469 18.882L4.04161 8.80197ZM5.8507 5.43737V6.05597H5.23205L3.27743 4.1014C3.27743 4.1014 3.27743 4.1014 3.27743 4.1014C2.93447 3.75844 2.44167 3.6116 1.96706 3.71078L5.8507 5.43737ZM19.7117 18.2834C20.5082 18.0707 21.3655 18.3007 21.9468 18.882L9.65125 8.01893L10.1168 8.20135L9.65125 8.01893C9.44285 8.55078 9.56907 9.15573 9.97317 9.55978C9.97318 9.55979 9.97319 9.5598 9.9732 9.55981L18.3244 17.911L18.3244 17.9111C18.6873 18.2738 19.216 18.4157 19.7116 18.2834L19.7117 18.2834ZM1.38792 4.77567L1.38798 4.77569L1.38792 4.77567ZM19.2576 6.94728V6.54715L20.258 5.94691L19.6578 6.94728H19.2576Z" fill="#182224" stroke="white"/>
<path d="M20.3117 21.4546C20.8294 21.4546 21.2491 21.0349 21.2491 20.5172C21.2491 19.9994 20.8294 19.5797 20.3117 19.5797C19.794 19.5797 19.3743 19.9994 19.3743 20.5172C19.3743 21.0349 19.794 21.4546 20.3117 21.4546Z" fill="#182224"/>
</g>
</svg>
