<svg width="24" height="24" viewBox="0 0 24 24" fill="none" xmlns="http://www.w3.org/2000/svg">
<g opacity="0.75">
<path d="M18.0599 14.4851L18.0776 14.5027L18.1023 14.4992C19.4141 14.3135 20.7579 14.7524 21.7059 15.7004C23.3656 17.3601 23.3656 20.0464 21.7059 21.7062C20.0501 23.362 17.3559 23.3619 15.7001 21.7062C14.7522 20.7583 14.3135 19.4143 14.4989 18.1026L14.5024 18.0779L14.4848 18.0602L10.8201 14.3956L10.7848 14.3602L10.7494 14.3956L9.53409 15.6109L9.49874 15.6463L9.53409 15.6816L10.1417 16.2893L10.1771 16.254L10.1417 16.2893C10.4578 16.6054 10.4578 17.1178 10.1417 17.4339L7.83365 19.742L7.82024 19.7554L7.8191 19.7743C7.7716 20.5658 7.45187 21.3059 6.89764 21.8914C6.25131 22.5741 5.37794 22.95 4.43775 22.95C2.56998 22.95 1.05035 21.4304 1.05035 19.5626C1.05035 18.6362 1.43626 17.7395 2.10895 17.1027C2.6944 16.5485 3.43463 16.2288 4.22608 16.1813L4.24502 16.1801L4.25844 16.1667L6.56648 13.8587C6.71828 13.7069 6.92414 13.6216 7.13882 13.6216C7.3535 13.6216 7.55936 13.7069 7.71115 13.8587L8.3188 14.4663L8.35416 14.5017L8.38951 14.4663L9.60485 13.251L9.6402 13.2156L9.60485 13.1803L7.5272 11.1026L7.50678 11.0822L7.4789 11.0897C5.73052 11.5581 3.84573 11.0671 2.54593 9.7673C1.11022 8.33159 0.661215 6.18213 1.4022 4.29132C1.50183 4.03711 1.72295 3.85023 1.99023 3.79438L1.99024 3.79438C2.25744 3.73854 2.53493 3.82121 2.72804 4.01432L4.6541 5.94034L4.66874 5.95499H4.68946H5.90479H5.95479V5.90499V4.68969V4.66898L5.94015 4.65434L4.014 2.72823C3.82093 2.53516 3.73821 2.25772 3.79406 1.99043C3.8499 1.72314 4.03678 1.50203 4.291 1.4024C6.18185 0.661494 8.33131 1.11045 9.76698 2.54621L9.80233 2.51085L9.76698 2.54621C11.0669 3.84605 11.5579 5.73089 11.0893 7.47913L11.0819 7.50702L11.1023 7.52743L13.1799 9.60508L13.2153 9.64044L13.2506 9.60508L15.5949 7.26082L15.6095 7.24617V7.22546V5.15082C15.6095 4.86653 15.7587 4.60305 16.0025 4.4568L15.9768 4.41393L16.0025 4.4568L19.0408 2.63386C19.3592 2.44278 19.7669 2.49299 20.0295 2.75559L21.2448 3.97088C21.5074 4.23347 21.5576 4.6411 21.3665 4.95958L19.5435 7.99782C19.3973 8.24159 19.1338 8.39076 18.8495 8.39076H16.7748H16.7541L16.7395 8.4054L14.3953 10.7497L14.3599 10.785L14.3953 10.8204L18.0599 14.4851ZM17.2526 5.59451L17.2283 5.60907V5.63738V6.72206V6.77206H17.2783H18.363H18.3913L18.4059 6.74778L19.6333 4.7021L19.6534 4.66862L19.6258 4.64101L19.3593 4.37462L19.3317 4.34702L19.2983 4.3671L17.2526 5.59451ZM3.25614 18.3146C3.60147 17.9876 4.05452 17.8204 4.53417 17.8466L3.25614 18.3146ZM6.4396 18.8468L6.40425 18.8114L6.4396 18.8468L8.38942 16.897L8.42478 16.8616L8.38942 16.8263L7.17413 15.6109L7.13878 15.5756L7.10342 15.6109L5.15351 17.5608L5.18887 17.5961L5.1535 17.5608C4.99086 17.7235 4.76651 17.8094 4.53695 17.7966L4.53689 17.7966C4.04354 17.7697 3.57707 17.9419 3.22177 18.2783C2.86543 18.6155 2.66905 19.0719 2.66905 19.5626C2.66905 20.5379 3.46245 21.3313 4.43775 21.3313C4.92847 21.3313 5.38481 21.135 5.7221 20.7786C6.05958 20.4221 6.23067 19.9548 6.20376 19.4634C6.19113 19.2337 6.27688 19.0095 6.4396 18.8468ZM3.69051 8.62272L3.72587 8.58736L3.69051 8.62272C4.67134 9.60346 6.13957 9.91017 7.43136 9.40394C7.73091 9.28658 8.07148 9.35772 8.29895 9.58519L15.9545 17.2408C16.1588 17.4451 16.2387 17.7428 16.1642 18.0219C15.9224 18.927 16.1831 19.9 16.8446 20.5615C17.8694 21.5863 19.5366 21.5862 20.5613 20.5615C21.5884 19.5345 21.5884 17.8721 20.5614 16.845L20.526 16.8803L20.5614 16.845C19.8999 16.1835 18.9269 15.9227 18.0218 16.1645C17.7426 16.239 17.4449 16.1591 17.2406 15.9548L9.585 8.29914L9.54964 8.3345L9.58499 8.29914C9.35749 8.07168 9.28638 7.73106 9.40374 7.43156C9.90989 6.13989 9.60326 4.67157 8.62252 3.69079C8.00961 3.07788 7.2061 2.72823 6.37448 2.6757L6.24238 2.66736L6.33598 2.76096L7.33652 3.7615C7.48827 3.91325 7.57353 4.11915 7.57353 4.33379V6.76442C7.57353 7.21143 7.21119 7.57377 6.76418 7.57377H4.33355C4.11887 7.57377 3.91301 7.48851 3.76122 7.33671L2.76072 6.33617L2.66714 6.24258L2.67547 6.37467C2.72791 7.20638 3.07751 8.00972 3.69051 8.62272Z" fill="white" stroke="#182224" stroke-width="0.1"/>
<path d="M18.703 19.5627C19.1776 19.5627 19.5623 19.178 19.5623 18.7033C19.5623 18.2287 19.1776 17.844 18.703 17.844C18.2284 17.844 17.8436 18.2287 17.8436 18.7033C17.8436 19.178 18.2284 19.5627 18.703 19.5627Z" fill="white"/>
</g>
</svg>
