<svg width="24" height="24" viewBox="0 0 24 24" fill="none" xmlns="http://www.w3.org/2000/svg">
<path opacity="0.75" d="M13.626 7.59633L13.626 7.59635C14.2102 6.66941 15.5818 7.45685 15.0633 8.43172L15.0624 8.43339L15.0624 8.43337L10.453 16.3631C10.2988 16.6284 10.0202 16.7765 9.73409 16.7767M13.626 7.59633L9.73363 16.7267M13.626 7.59633L13.6251 7.59788L9.01623 15.5267L13.626 7.59633ZM9.73409 16.7767C9.73394 16.7767 9.73379 16.7767 9.73363 16.7767V16.7267M9.73409 16.7767C9.73424 16.7767 9.73439 16.7767 9.73455 16.7767L9.73363 16.7267M9.73409 16.7767C9.10892 16.7877 8.68776 16.0674 9.01596 15.5272L9.01572 15.5276L9.05895 15.5527C8.75086 16.0591 9.14703 16.7374 9.73363 16.7267M8.52344 6.44215L8.52154 6.44222C5.35231 6.56251 5.35328 11.1098 8.52159 11.2297L8.52159 11.2297H8.52348C9.8434 11.2297 10.9172 10.1559 10.9172 8.83594C10.9172 7.51598 9.8434 6.44219 8.52344 6.44215ZM15.5156 12.7312L15.5137 12.7313C12.3445 12.8516 12.3455 17.3989 15.5138 17.5187L15.5138 17.5188H15.5157C16.8356 17.5188 17.9094 16.445 17.9094 15.125C17.9094 13.805 16.8356 12.7312 15.5156 12.7312ZM6.6875 22.05H17.3125C19.9248 22.05 22.05 19.9248 22.05 17.3125V6.6875C22.05 4.0752 19.9248 1.95 17.3125 1.95H6.6875C4.0752 1.95 1.95 4.0752 1.95 6.6875V17.3125C1.95 19.9248 4.0752 22.05 6.6875 22.05ZM3.6125 6.6875C3.6125 4.99199 4.99199 3.6125 6.6875 3.6125H17.3125C19.008 3.6125 20.3875 4.99199 20.3875 6.6875V17.3125C20.3875 19.008 19.008 20.3875 17.3125 20.3875H6.6875C4.99199 20.3875 3.6125 19.008 3.6125 17.3125V6.6875ZM9.25469 8.83594C9.25469 9.23879 8.92711 9.56668 8.52438 9.56719C7.55483 9.52946 7.55503 8.14226 8.52438 8.10469C8.92711 8.1052 9.25469 8.43308 9.25469 8.83594ZM16.2469 15.125C16.2469 15.5279 15.9193 15.8557 15.5166 15.8562C14.547 15.8186 14.5472 14.4313 15.5166 14.3938C15.9193 14.3943 16.2469 14.7221 16.2469 15.125Z" fill="white" stroke="white" stroke-width="0.1"/>
</svg>
