<svg width="14" height="17" viewBox="0 0 14 17" fill="none" xmlns="http://www.w3.org/2000/svg">
<path d="M13.0359 3.58756L7.47925 1.02736L7.39314 0.992915C7.14452 0.92974 6.88404 0.92974 6.63541 0.992915L6.54931 1.02736L0.992625 3.58756C0.730162 3.70841 0.510289 3.90566 0.361778 4.15352C0.213267 4.40138 0.143034 4.6883 0.160271 4.97673L0.355444 8.23727C0.466199 10.1126 1.10783 11.9178 2.20551 13.4424C3.30318 14.9669 4.81167 16.148 6.55505 16.8478C6.70116 16.9136 6.85979 16.9469 7.02002 16.9454C7.17232 16.9478 7.32326 16.9164 7.46203 16.8536C9.20755 16.1554 10.7184 14.9751 11.8182 13.4504C12.918 11.9258 13.5614 10.1196 13.6731 8.24301L13.8683 4.98247C13.8867 4.6931 13.817 4.40492 13.6685 4.15592C13.5199 3.90692 13.2993 3.70876 13.0359 3.58756Z" fill="#0764FD"/>
<path d="M6.05251 12.2786C5.97108 12.3605 5.86003 12.4062 5.74463 12.4062C5.62923 12.4062 5.51818 12.3605 5.43674 12.2786L2.97802 9.81946C2.72282 9.56427 2.72282 9.15056 2.97802 8.89581L3.2859 8.58792C3.54109 8.33273 3.95436 8.33273 4.20956 8.58792L5.74463 10.123L9.89259 5.97503C10.1478 5.71984 10.5615 5.71984 10.8162 5.97503L11.1241 6.28292C11.3793 6.53811 11.3793 6.95182 11.1241 7.20657L6.05251 12.2786Z" fill="white"/>
</svg>
